<?xml version="1.0" encoding="UTF-8"?>
<svg id="Layer_1" data-name="Layer 1" xmlns="http://www.w3.org/2000/svg" viewBox="0 0 400 83.6">
  <defs>
    <style>
      .cls-1 {
        fill: #000;
      }

      .cls-1, .cls-2 {
        stroke-width: 0px;
      }

      .cls-2 {
        fill: #fff;
      }
    </style>
  </defs>
  <polygon class="cls-1" points="0 56.1 34.26 33.6 42.63 44.85 83.24 10.88 117.57 52.33 151.06 28.05 173.24 50.23 226.83 0 280.83 56.1 342.79 39.77 400 56.1 400 83.6 0 83.6 0 56.1"/>
  <path class="cls-2" d="M8.76,68.42c-5.09-1.3-6.1-8.13-1.69-10.99l18.5-11.99s7.85-6.79,9.29-.63c2.12,9.03,8.05,5.61,10.84,4.08s2.6-1.7,4.76-3.28c5.53-4.04,6.46-4.97,23.28-19.67.07-.06,4.95-4.48,5.02-4.55,1.67-1.63,8.19-3.41,4.39,7.76s6.43,2.47,7.76,8.43c2.46,10.98-28.15,4.82-30.97,12.3-4.38,11.59-26.49,10-26.49,15.24,0,3.5-15.28,5.71-24.68,3.3Z"/>
  <path class="cls-2" d="M126.93,52.78s21.08-16.62,23.32-16.2,1.54,2.2,2.65,6.97,6.28,1.27,6.7,4.62-12.57,3.21-15.92,4.89c-9.52,4.78-31.05,10.51-16.76-.28Z"/>
  <path class="cls-2" d="M339.16,45.46c-10.56,2.61-51.33,12.47-54.97,15.36-8.01,6.37,12.2,1.54,16.09,2.94s2.26,4.46,6.66,3.96c9.41-1.06,23.6-9.68,27.6-6.03s18.34,3.67,11.8-3.78c-3.39-3.86-1.67-13.82-7.18-12.46Z"/>
  <path class="cls-2" d="M225.14,9.65c-1.76.58-3.35,1.61-4.69,2.89-6.92,6.6-36.86,34.94-36.66,37.48.26,3.28,5.54-2.47,14.19-.43s.25,12.37,4.12,15.78c5.63,4.97,11.39-19.8,15-18.66s14.59.51,5.85-9c-8.06-8.76,11.72-31.22,2.19-28.07Z"/>
</svg>