<?xml version="1.0" encoding="utf-8"?>
<!-- Generator: Adobe Illustrator 16.0.4, SVG Export Plug-In . SVG Version: 6.00 Build 0)  -->
<!DOCTYPE svg PUBLIC "-//W3C//DTD SVG 1.1//EN" "http://www.w3.org/Graphics/SVG/1.1/DTD/svg11.dtd">
<svg version="1.1" id="Layer_1" xmlns="http://www.w3.org/2000/svg" xmlns:xlink="http://www.w3.org/1999/xlink" x="0px" y="0px"
	 width="612px" height="792px" viewBox="133 144 351 502" enable-background="new 0 0 612 792" xml:space="preserve">
<g>
	<path d="M133.477,144.86v502.6h351.311v-502.6H133.477z M464.453,165.194v97.221l-62.792-56.599l-50.744,45.191l-61.168-63.91
		l-67.811,66.509l-14.023-13.386l-54.104,43.131V165.194H464.453z"/>
	<path fill="#FFFFFF" d="M381.571,381.799h51.397v9.961c-19.494,0-25.826,10.615-25.826,31.507v135.166
		c0,8.682,0,13.505,1.053,19.604c1.048,5.798,10.01,7.39,21.891,8.364v9.96h-83.053v-9.96c11.87-0.975,20.832-2.566,21.89-8.364
		c1.058-6.099,1.058-10.922,1.058-19.604v-112.02h-0.799L301.164,596.36h-6.312l-66.157-155.087h-0.529v107.822
		c0,8.043,0.254,15.114,1.302,21.229c1.058,10.615,8.189,15.102,22.149,16.076v9.96h-60.089v-9.96
		c14.22-0.975,21.081-5.461,22.398-16.076c0.524-6.114,1.322-13.186,1.322-21.229V420.382
		c-6.078-16.717-18.208-28.622-31.624-28.622v-9.961h59.285l67.759,159.572L381.571,381.799L381.571,381.799z"/>
	<g>
		<path fill-rule="evenodd" clip-rule="evenodd" fill="#FFFFFF" d="M376.712,289.545c-0.97,1.74-2.401,3.323-3.822,4.665
			c-3.718,3.491-3.729,4.439-7.971,7.219c-4.081,2.671-8.183,5.311-12.312,7.943c-3.282,2.094-7.104,3.488-9.785,6.558
			c-2.733,3.13-4.87,7.031-5.44,11.185c-0.155,1.15-1.338,9.722,0.031,10.12c4.766,1.378,9.719-0.96,14.406-1.698
			c6.457-1.014,14.812,0.02,19.126,5.444c2.271,2.833,6.275,3.183,9.122,0.362c2.438-2.414,3.78-8.538,3.771-11.65
			c-0.011-2.48-1.645-5.811-0.431-8.181c1.499-2.929,4.802-2.376,7.603-3.224c6.223-1.921,11.3-4.141,16.839-7.58
			c3.843-2.403,10.128-6.19,12.446-10.155c3.392-5.813-0.685-12.897,0.295-19.017c0.617-3.861,4.361-7.92,6.431-11.184
			c1.582-2.458,8.235-15.167,1.432-15.037c-3.796,0.074-8.21,1.885-11.414-1.28c-3.744-3.704-3.102-9.667-4.632-14.312
			c-1.224-3.673-3.354-9.49-7.467-10.874c-3.874-1.299-9.963,4.113-12.551,6.385c-6.357,5.595-13.493,11.249-19.841,16.874
			c-5.248,4.65-11.767,10.638-16.714,16.377c-2.661,3.112,0.041,6.735,2.38,9.104c0.876,0.893,2.65,3.305,3.76,3.746
			c2.66,1.045,5.73-2.083,8.344-2.417c2.65-0.338,5.238,0.526,6.617,2.875C378.512,284.471,378.045,287.146,376.712,289.545z"/>
	</g>
	<polygon fill="#11ACD4" points="221.938,253.606 289.749,187.097 350.917,251.007 401.661,205.816 464.453,262.415 
		464.453,165.194 153.811,165.194 153.811,283.352 207.915,240.221 	"/>
	<path fill-rule="evenodd" clip-rule="evenodd" fill="#FFFFFF" d="M192.264,330.361c6.913,1.25,12.42,6.223,17.414,10.59
		c4.325,3.789,8.64,9.171,15.097,8.041c5.611-0.985,8.059-2.773,9.723-7.98c0.965-3.009,1.172-6.223,2.407-9.171
		c1.649-3.939,3.941-4.282,7.95-5.424c2.474-0.707,4.891-1.625,7.333-2.441c5.616-1.884,13.494-2.996,16.984-7.932
		c4.112-5.774,4.506-10.571,5.373-17.41c0.664-5.461,0.332-8.669,2.043-13.932c2.479-7.623,25.364-23.668,28.222-30.937
		c1.359-3.475-11.212-1.057-12.099-4.409c-2.883-10.753,3.179-26.909-1.011-37.244c-1.058-1.197-2.526-0.985-3.771,0
		c-5.29,5.533-23,23.929-28.336,29.385c-5.979,6.113-12.088,12.106-17.907,18.358c-3.366,3.601-7.027,6.935-10.009,10.832
		c-2.22,2.894-4.782,5.672-7.198,8.409c-1.255,1.408-3.127,3.952-5.393,3.602c-3.75-0.592-5.601-7.733-5.72-10.664
		c-0.125-2.525,0.119-5.456-1.271-7.721c-2.774-4.488-6.151-2.573-9.205-0.229c-3.355,2.574-6.882,4.99-10.268,7.516
		c-11.777,8.75-24.364,17.831-35.576,27.322c-0.378,0.32-1.836,1.319-3.236,2.369v32.368
		C164.172,335.937,182.66,328.62,192.264,330.361z"/>
</g>
</svg>
